<svg
    width="16"
    height="16"
    viewBox="0 0 16 16"
    fill="none"
    xmlns="http://www.w3.org/2000/svg"
>
    <path
    d="M6.19325 4.47319C6.13145 4.53486 6.08242 4.60812 6.04897 4.68877C6.01551 4.76942 5.99829 4.85587 5.99829 4.94319C5.99829 5.0305 6.01551 5.11695 6.04897 5.1976C6.08242 5.27825 6.13145 5.35151 6.19325 5.41319L8.77992 7.99985L6.19325 10.5865C6.13153 10.6482 6.08257 10.7215 6.04917 10.8022C6.01577 10.8828 5.99857 10.9692 5.99857 11.0565C5.99857 11.1438 6.01577 11.2302 6.04917 11.3109C6.08257 11.3915 6.13153 11.4648 6.19325 11.5265C6.25498 11.5882 6.32825 11.6372 6.40889 11.6706C6.48953 11.704 6.57597 11.7212 6.66325 11.7212C6.75054 11.7212 6.83697 11.704 6.91762 11.6706C6.99826 11.6372 7.07153 11.5882 7.13325 11.5265L10.1933 8.46652C10.2551 8.40484 10.3041 8.33158 10.3375 8.25093C10.371 8.17029 10.3882 8.08383 10.3882 7.99652C10.3882 7.90921 10.371 7.82275 10.3375 7.7421C10.3041 7.66145 10.2551 7.58819 10.1933 7.52652L7.13325 4.46652C6.87992 4.21319 6.45325 4.21319 6.19325 4.47319Z"
    fill="#73738C"
    />
</svg>