<svg
            width="46"
            height="16"
            viewBox="0 0 46 16"
            fill="none"
            xmlns="http://www.w3.org/2000/svg"
          >
            <path
              d="M2 11.6397V13.6663C2 13.853 2.14667 13.9997 2.33333 13.9997H4.36C4.44667 13.9997 4.53333 13.9663 4.59333 13.8997L11.8733 6.62634L9.37333 4.12634L2.1 11.3997C2.03333 11.4663 2 11.5463 2 11.6397ZM13.8067 4.69301C13.8685 4.63133 13.9175 4.55807 13.951 4.47743C13.9844 4.39678 14.0016 4.31032 14.0016 4.22301C14.0016 4.1357 13.9844 4.04924 13.951 3.96859C13.9175 3.88794 13.8685 3.81469 13.8067 3.75301L12.2467 2.19301C12.185 2.13121 12.1117 2.08218 12.0311 2.04872C11.9504 2.01527 11.864 1.99805 11.7767 1.99805C11.6894 1.99805 11.6029 2.01527 11.5223 2.04872C11.4416 2.08218 11.3683 2.13121 11.3067 2.19301L10.0867 3.41301L12.5867 5.91301L13.8067 4.69301Z"
              fill="#73738C"
            />
            <path
              d="M29.0947 11.6055V13H21.3291V3.36816H28.8145V4.7627H23.1133V7.4082H28.4043V8.7959H23.1133V11.6055H29.0947ZM35.4111 13C35.402 12.9544 35.3883 12.861 35.3701 12.7197C35.3564 12.5739 35.3451 12.4144 35.3359 12.2412C35.3268 12.068 35.3223 11.9222 35.3223 11.8037H35.2949C35.0762 12.2594 34.7731 12.5967 34.3857 12.8154C34.0029 13.0296 33.5244 13.1367 32.9502 13.1367C32.0615 13.1367 31.387 12.8086 30.9268 12.1523C30.471 11.4915 30.2432 10.5459 30.2432 9.31543C30.2432 8.07129 30.4824 7.11882 30.9609 6.45801C31.444 5.7972 32.139 5.4668 33.0459 5.4668C33.5791 5.4668 34.0348 5.57389 34.4131 5.78809C34.7913 6.00228 35.0876 6.32812 35.3018 6.76562H35.3154L35.3018 5.67871V2.85547H36.9902V11.4141C36.9902 11.6966 36.9948 11.9701 37.0039 12.2344C37.013 12.4987 37.0267 12.7539 37.0449 13H35.4111ZM32.0068 9.30176C32.0068 10.2087 32.1367 10.8763 32.3965 11.3047C32.6562 11.7331 33.055 11.9473 33.5928 11.9473C34.1624 11.9473 34.5931 11.7194 34.8848 11.2637C35.1764 10.8034 35.3223 10.1312 35.3223 9.24707C35.3223 8.38574 35.181 7.73633 34.8984 7.29883C34.6159 6.86133 34.1852 6.64258 33.6064 6.64258C33.0596 6.64258 32.6562 6.85905 32.3965 7.29199C32.1367 7.72038 32.0068 8.3903 32.0068 9.30176ZM40.6133 2.85547V4.18848H38.9248V2.85547H40.6133ZM40.6133 5.60352V13H38.9248V5.60352H40.6133ZM45.8564 12.9111C45.4098 13.0479 44.9108 13.1162 44.3594 13.1162C43.8171 13.1162 43.4023 12.9681 43.1152 12.6719C42.8327 12.3711 42.6914 11.9199 42.6914 11.3184V6.76562H41.7822V5.60352H42.7734L43.293 3.89453H44.3662V5.60352H45.7607V6.76562H44.3662V10.8877C44.3662 11.2432 44.43 11.5029 44.5576 11.667C44.6898 11.8265 44.8994 11.9062 45.1865 11.9062C45.3324 11.9062 45.5557 11.8743 45.8564 11.8105V12.9111Z"
              fill="#73738C"
            />
          </svg>