<svg xmlns="http://www.w3.org/2000/svg" width='16' height='16'>
            <path
              d="M6.86671 5.13333C6.80495 5.19435 6.75591 5.26702 6.72245 5.34712C6.68898 5.42723 6.67175 5.51318 6.67175 5.6C6.67175 5.68682 6.68898 5.77277 6.72245 5.85288C6.75591 5.93298 6.80495 6.00565 6.86671 6.06667L8.13337 7.33333H2.00004C1.63337 7.33333 1.33337 7.63333 1.33337 8C1.33337 8.36667 1.63337 8.66667 2.00004 8.66667H8.13337L6.86671 9.93333C6.80495 9.99435 6.75591 10.067 6.72245 10.1471C6.68898 10.2272 6.67175 10.3132 6.67175 10.4C6.67175 10.4868 6.68898 10.5728 6.72245 10.6529C6.75591 10.733 6.80495 10.8057 6.86671 10.8667C7.12671 11.1267 7.54004 11.1267 7.80004 10.8667L10.1934 8.47333C10.2552 8.41166 10.3042 8.3384 10.3377 8.25775C10.3711 8.1771 10.3883 8.09065 10.3883 8.00333C10.3883 7.91602 10.3711 7.82957 10.3377 7.74892C10.3042 7.66827 10.2552 7.59501 10.1934 7.53333L7.80004 5.13333C7.73903 5.07157 7.66636 5.02254 7.58625 4.98907C7.50614 4.95561 7.42019 4.93837 7.33337 4.93837C7.24656 4.93837 7.1606 4.95561 7.0805 4.98907C7.00039 5.02254 6.92772 5.07157 6.86671 5.13333ZM13.3334 12.6667H8.66671C8.30004 12.6667 8.00004 12.9667 8.00004 13.3333C8.00004 13.7 8.30004 14 8.66671 14H13.3334C14.0667 14 14.6667 13.4 14.6667 12.6667V3.33333C14.6667 2.6 14.0667 2 13.3334 2H8.66671C8.30004 2 8.00004 2.3 8.00004 2.66667C8.00004 3.03333 8.30004 3.33333 8.66671 3.33333H13.3334V12.6667Z"
              fill="#AEAEAF"
            />
          </svg>