<svg width="16" height="16" viewBox="0 0 16 16" fill="none" xmlns="http://www.w3.org/2000/svg">
<path d="M6.19338 4.47319C6.13157 4.53486 6.08254 4.60812 6.04909 4.68877C6.01563 4.76942 5.99841 4.85587 5.99841 4.94319C5.99841 5.0305 6.01563 5.11695 6.04909 5.1976C6.08254 5.27825 6.13157 5.35151 6.19338 5.41319L8.78004 7.99985L6.19338 10.5865C6.13165 10.6482 6.08269 10.7215 6.04929 10.8022C6.01589 10.8828 5.9987 10.9692 5.9987 11.0565C5.9987 11.1438 6.01589 11.2302 6.04929 11.3109C6.08269 11.3915 6.13165 11.4648 6.19338 11.5265C6.2551 11.5882 6.32837 11.6372 6.40901 11.6706C6.48966 11.704 6.57609 11.7212 6.66338 11.7212C6.75066 11.7212 6.8371 11.704 6.91774 11.6706C6.99838 11.6372 7.07165 11.5882 7.13338 11.5265L10.1934 8.46652C10.2552 8.40484 10.3042 8.33158 10.3377 8.25093C10.3711 8.17029 10.3883 8.08383 10.3883 7.99652C10.3883 7.90921 10.3711 7.82275 10.3377 7.7421C10.3042 7.66145 10.2552 7.58819 10.1934 7.52652L7.13338 4.46652C6.88004 4.21319 6.45338 4.21319 6.19338 4.47319Z" fill="#3173CC"/>
</svg>
