<svg width="52" height="16" viewBox="0 0 52 16" fill="none" xmlns="http://www.w3.org/2000/svg">
<path d="M10.1113 3.36816L6.44043 13H4.62207L0.9375 3.36816H2.80371L5.01172 9.75293C5.08919 9.98079 5.17122 10.2428 5.25781 10.5391C5.3444 10.8353 5.43783 11.1657 5.53809 11.5303C5.67025 11.0563 5.77507 10.6826 5.85254 10.4092C5.93001 10.1357 5.99837 9.91699 6.05762 9.75293L8.25879 3.36816H10.1113ZM12.5859 2.85547V4.18848H10.8975V2.85547H12.5859ZM12.5859 5.60352V13H10.8975V5.60352H12.5859ZM15.9082 9.63672C15.9082 10.3978 16.054 10.9788 16.3457 11.3799C16.6419 11.7764 17.068 11.9746 17.624 11.9746C18.0251 11.9746 18.3509 11.8903 18.6016 11.7217C18.8522 11.5485 19.0254 11.3092 19.1211 11.0039L20.6934 11.2158C20.1966 12.4964 19.1507 13.1367 17.5557 13.1367C16.4528 13.1367 15.6051 12.8086 15.0127 12.1523C14.4248 11.4961 14.1309 10.5322 14.1309 9.26074C14.1309 8.03939 14.4271 7.10286 15.0195 6.45117C15.6165 5.79492 16.4642 5.4668 17.5625 5.4668C18.6335 5.4668 19.4447 5.81087 19.9961 6.49902C20.5521 7.18717 20.8301 8.20117 20.8301 9.54102V9.63672H15.9082ZM19.1689 8.51562C19.1188 7.85938 18.9548 7.37174 18.6768 7.05273C18.4033 6.73372 18.0228 6.57422 17.5352 6.57422C17.0339 6.57422 16.6442 6.7474 16.3662 7.09375C16.0882 7.43555 15.9401 7.90951 15.9219 8.51562H19.1689ZM26.3604 8.25586L25.123 13H23.2979L21.3291 5.60352H22.9355L23.9883 10.2246C24.0339 10.416 24.0794 10.6211 24.125 10.8398C24.1706 11.054 24.2161 11.2728 24.2617 11.4961C24.3118 11.2819 24.3574 11.0654 24.3984 10.8467C24.4395 10.6279 24.4896 10.4137 24.5488 10.2041L25.7725 5.60352H27.584L28.7666 10.1973C28.8076 10.3477 28.8532 10.5322 28.9033 10.751C28.9535 10.9652 29.0059 11.2135 29.0605 11.4961C29.1107 11.2773 29.1608 11.0563 29.2109 10.833C29.2611 10.6097 29.3089 10.3955 29.3545 10.1904L30.4346 5.60352H32.0205L30.0244 13H28.1924L26.9756 8.24902C26.9437 8.11686 26.9027 7.93457 26.8525 7.70215C26.8024 7.46517 26.7454 7.18262 26.6816 6.85449C26.6361 7.05501 26.5859 7.2806 26.5312 7.53125C26.4811 7.7819 26.4242 8.02344 26.3604 8.25586Z" fill="#3173CC"/>
<path d="M42.1934 4.47319C42.1316 4.53486 42.0825 4.60812 42.0491 4.68877C42.0156 4.76942 41.9984 4.85587 41.9984 4.94319C41.9984 5.0305 42.0156 5.11695 42.0491 5.1976C42.0825 5.27825 42.1316 5.35151 42.1934 5.41319L44.78 7.99985L42.1934 10.5865C42.1317 10.6482 42.0827 10.7215 42.0493 10.8022C42.0159 10.8828 41.9987 10.9692 41.9987 11.0565C41.9987 11.1438 42.0159 11.2302 42.0493 11.3109C42.0827 11.3915 42.1317 11.4648 42.1934 11.5265C42.2551 11.5882 42.3284 11.6372 42.409 11.6706C42.4897 11.704 42.5761 11.7212 42.6634 11.7212C42.7507 11.7212 42.8371 11.704 42.9177 11.6706C42.9984 11.6372 43.0717 11.5882 43.1334 11.5265L46.1934 8.46652C46.2552 8.40484 46.3042 8.33158 46.3377 8.25093C46.3711 8.17029 46.3883 8.08383 46.3883 7.99652C46.3883 7.90921 46.3711 7.82275 46.3377 7.7421C46.3042 7.66145 46.2552 7.58819 46.1934 7.52652L43.1334 4.46652C42.88 4.21319 42.4534 4.21319 42.1934 4.47319Z" fill="#3173CC"/>
</svg>
